<?xml version="1.0" encoding="utf-8"?>
<!-- Generator: Adobe Illustrator 16.0.0, SVG Export Plug-In . SVG Version: 6.00 Build 0)  -->
<!DOCTYPE svg PUBLIC "-//W3C//DTD SVG 1.1//EN" "http://www.w3.org/Graphics/SVG/1.1/DTD/svg11.dtd">
<svg version="1.1" id="Layer_1" xmlns="http://www.w3.org/2000/svg" xmlns:xlink="http://www.w3.org/1999/xlink" x="0px" y="0px"
	 width="180px" height="45px" viewBox="0 0 180 45" enable-background="new 0 0 180 45" xml:space="preserve">
<g>
	<g>
		<path fill="#FFFFFF" d="M14.329,19.644c3.049,0,7.913,1.097,7.913,3.255c0,0.787-0.719,2.192-1.37,2.911h-0.206
			c-1.815-2.74-4.487-4.179-7.091-4.179c-3.871,0-7.468,3.151-7.468,9.66c0,5.515,3.015,11.167,8.735,11.167
			c1.267,0,2.5-0.137,3.734-0.514c0.103-0.856,0.171-2.124,0.171-3.186c0-2.501-0.034-5.31-0.548-5.687
			c0.445-0.172,1.028-0.172,1.61-0.172c1.61,0,2.98,0.515,2.98,2.33c0,1.85-0.206,4.179-0.206,6.028
			c0,1.063,0.068,2.844,0.068,2.844l-0.171,0.171c0,0-0.548-0.103-1.165-0.103c-2.124,0-5.652,0.479-7.228,0.479
			c-8.358,0-12.195-5.755-12.195-11.784C1.895,26.393,6.382,19.644,14.329,19.644z"/>
		<path fill="#FFFFFF" d="M27.854,20.123c0,0,1.268-0.308,1.884-0.308c1.542,0,2.706,0.787,2.706,2.123
			c0,2.398-0.034,9.146-0.034,12.024c0,5.584,2.432,8.632,6.372,8.632c3.871,0,6.337-3.048,6.337-8.632c0-5.036,0-9.798-0.377-13.84
			c0,0,1.028-0.308,1.542-0.308c1.302,0,1.336,0.787,1.336,2.123c0,2.98-0.274,8.701-0.274,11.579c0,7.057-2.843,11.133-9.42,11.133
			c-5.618,0-9.66-3.151-9.66-10.928C28.266,20.945,27.854,20.432,27.854,20.123z"/>
		<path fill="#FFFFFF" d="M50.458,43.966c0,0,0.959-0.72,2.227-4.282l7.16-19.972c0,0,3.494,0.138,4.693,4.146
			c1.302,4.316,4.351,13.531,6.063,17.333c0.959,2.158,1.165,2.569,1.576,2.775v0.171c0,0-1.302,0.343-2.5,0.343
			c-1.507,0-2.741-0.583-3.151-2.056c-0.446-1.541-1.096-3.768-1.918-6.269c-1.062-0.034-2.261-0.068-3.426-0.068
			c-1.747,0-3.494,0.068-4.933,0.137c-2.056,6.234-1.884,8.256-4.556,8.256c-0.583,0-1.233-0.343-1.233-0.343V43.966z
			 M60.461,34.408c1.199,0,2.398-0.034,3.528-0.068c-1.233-3.632-2.569-7.502-3.666-10.312h-0.171
			c-1.473,4.248-2.5,7.604-3.357,10.312C57.892,34.374,59.159,34.408,60.461,34.408z"/>
		<path fill="#FFFFFF" d="M76.042,34.647c0-2.843-0.069-8.7-0.171-10.893c-0.171-3.323-0.343-3.666-0.343-3.666
			s1.336,0.068,2.741,0.068h4.248c5.926,0,8.872,2.741,8.872,6.166c0,6.063-5.549,6.886-5.549,6.886v0.171
			c0,0,5.79,8.633,8.667,10.277v0.239c0,0-2.021,0.445-3.014,0.445c-5.413,0-8.051-10.345-11.031-11.201l-0.479-0.137
			c0,0.821,0.171,5.378,0.171,9.146c0,1.851-1.027,2.33-2.227,2.33c-0.719,0-1.473-0.206-2.329-0.343
			C75.597,44.137,76.042,43.178,76.042,34.647z M82.928,31.736c2.432,0,4.419-1.233,4.419-4.693c0-2.74-1.61-5.07-6.166-5.07h-1.062
			c-0.103,2.878-0.137,6.852-0.137,9.387C80.975,31.702,81.969,31.736,82.928,31.736z"/>
		<path fill="#FFFFFF" d="M98.578,34.647c0-2.055-0.138-9.249-0.206-10.893c-0.171-3.323-0.343-3.598-0.343-3.598h7.605
			c7.09,0,14.455,2.672,14.455,11.956c0,7.091-5.035,12.332-11.646,12.332c-3.015,0-4.625-0.309-10.242-0.309
			C98.201,44.137,98.578,43.178,98.578,34.647z M107.348,42.424c5.275,0,8.324-4.385,8.324-9.66c0-7.981-5.824-10.791-11.373-10.791
			c-0.549,0-1.131,0-1.68,0.035c0,0-0.102,8.289-0.102,12.503c0,2.09,0.033,4.18,0.102,6.303
			C102.654,42.219,105.531,42.424,107.348,42.424z"/>
		<path fill="#FFFFFF" d="M125.564,31.53c0-2.843-0.068-5.583-0.17-7.775c-0.172-3.323-0.344-3.632-0.344-3.632
			c0.584-0.171,1.336-0.308,1.885-0.308c1.541,0,2.707,0.787,2.707,2.123c0,2.98-0.139,5.79-0.139,8.667
			c0,4.487,0,8.906,0.584,13.463c-0.857,0.137-1.576,0.343-2.297,0.343c-1.197,0-2.227-0.479-2.227-2.33V31.53z"/>
		<path fill="#FFFFFF" d="M133.338,43.966c0,0,0.961-0.72,2.227-4.282l7.16-19.972c0,0,3.494,0.138,4.693,4.146
			c1.301,4.316,4.35,13.531,6.063,17.333c0.959,2.158,1.166,2.569,1.576,2.775v0.171c0,0-1.301,0.343-2.5,0.343
			c-1.508,0-2.74-0.583-3.152-2.056c-0.445-1.541-1.096-3.768-1.918-6.269c-1.063-0.034-2.262-0.068-3.426-0.068
			c-1.746,0-3.494,0.068-4.932,0.137c-2.057,6.234-1.885,8.256-4.557,8.256c-0.582,0-1.234-0.343-1.234-0.343V43.966z
			 M143.342,34.408c1.199,0,2.398-0.034,3.527-0.068c-1.232-3.632-2.568-7.502-3.664-10.312h-0.172
			c-1.473,4.248-2.5,7.604-3.357,10.312C140.771,34.374,142.039,34.408,143.342,34.408z"/>
		<path fill="#FFFFFF" d="M158.924,34.647c0-2.055-0.139-9.249-0.207-10.893c-0.17-3.323-0.342-3.598-0.342-3.598
			c0.41-0.137,1.027-0.273,1.746-0.273c0.721,0,1.439,0.068,1.781,0.582c0.926,1.37,2.193,3.049,3.633,4.762l6.645,8.016
			c1.748,2.124,3.084,3.837,3.426,4.557l0.137-0.138c-0.137-2.706-0.102-10.379-0.273-13.907c-0.172-3.323-0.342-3.632-0.342-3.632
			s0.582-0.308,1.266-0.308c1.475,0,1.576,0.719,1.576,1.952c0,4.145-0.17,8.119-0.17,13.497c0,3.837,0.033,7.639,0.307,8.872
			c0,0-0.752,0.205-1.678,0.205c-0.514,0-1.164-0.239-1.609-0.925c-0.857-1.336-2.193-3.049-3.77-4.933l-6.781-8.118
			c-1.781-2.158-3.084-3.837-3.256-4.488l-0.137,0.138c0,5.344,0.309,10.482,0.309,16.1c0,1.851-0.068,2.33-1.268,2.33
			c-0.719,0-1.508-0.343-1.508-0.343S158.924,43.178,158.924,34.647z"/>
	</g>
	<path fill="#FFFFFF" d="M54.219,5.327c0,0,1.581,1.547,1.409,5.516s-3.117,5.063-3.117,5.063s-2.857,1.172-5.413-0.282
		c-2.554-1.46-2.423-4.214-2.423-4.214s-0.172-1.783,1.344-4.252c1.515-2.471,1.515-1.779,2.292-3.924c0,0,0.177,3.236-0.085,4.17
		c0,0,1.087,0.525,1.928-2.268c0,0,0.842-3.24-0.238-4.777c0,0,1.512-0.365,2.726,4.494c0,0,0.862,3.006,0.386,5.354
		c0,0,0.956,1.001,1.174-2.035C54.417,5.136,54.219,5.327,54.219,5.327z"/>
	<g>
		<g>
			<path fill-rule="evenodd" clip-rule="evenodd" fill="#FFFFFF" d="M75.188,10.957c0,0.295,0,0.59,0,0.886
				c-0.01,0.063-0.028,0.122-0.034,0.181c-0.19,1.884-1.538,3.543-3.356,4.101c-0.338,0.103-0.693,0.153-1.039,0.227
				c-0.284,0-0.567,0-0.852,0c-0.083-0.015-0.164-0.032-0.25-0.045c-1.953-0.307-3.555-1.769-4.037-3.687
				c-0.057-0.229-0.096-0.465-0.143-0.698c0-0.297,0-0.594,0-0.891c0.008-0.028,0.023-0.054,0.028-0.081
				c0.067-0.685,0.256-1.334,0.567-1.936c0.568-1.108,1.152-2.202,1.75-3.289c0.646-1.175,1.361-2.312,1.879-3.554
				c0.252-0.598,0.443-1.224,0.655-1.814c-0.005-0.014,0.006,0.005,0.011,0.032c0.271,1.268,0.813,2.432,1.474,3.539
				c0.58,0.973,1.187,1.929,1.769,2.899c0.561,0.936,1.06,1.901,1.339,2.962C75.05,10.171,75.11,10.568,75.188,10.957z
				 M69.837,4.927c-0.019-0.013-0.035-0.026-0.054-0.04c-0.048,0.047-0.11,0.082-0.142,0.144c-0.6,1.046-1.195,2.092-1.786,3.141
				c-0.175,0.313-0.337,0.628-0.478,0.954c-0.361,0.85-0.564,1.732-0.463,2.66c0.031,0.305,0.142,0.573,0.388,0.771
				c0.315,0.254,0.72,0.192,0.952-0.136c0.172-0.241,0.229-0.516,0.198-0.807c-0.081-0.759-0.04-1.516,0.15-2.255
				c0.24-0.912,0.515-1.816,0.771-2.729C69.532,6.063,69.681,5.498,69.837,4.927z"/>
		</g>
	</g>
	<g>
		<g>
			<path fill="#FFFFFF" d="M178.105,0.351c0,0-1.088,1.756-4.4,2.117c-3.316,0.367-7.088,0.975-8.471,3.971
				c-1.377,2.998-0.992,4.436,0,5.561c0,0,0.461-3.242,2.203-4.582s2.805-1.949,4.402-2.293c1.598-0.342,3.895-1.58,3.895-1.58
				s-1.5,1.314-3.748,2.117c-2.252,0.807-4.041,1.807-4.744,3.096s-1.184,1.705-1.258,4.801c0,0,1.211,1.389,3.969,0.269
				c2.758-1.124,5.057-3.925,6.049-6.39C176.994,4.98,177.617,3.445,178.105,0.351z"/>
		</g>
		<path fill="#FFFFFF" d="M165.984,13.558c0,0,0.195,1.785,0.693,2.542c0.416,0.634,0.211-0.132,0.211-0.132l-0.553-2.281
			L165.984,13.558z"/>
	</g>
	<g>
		<g>
			<path fill="#FFFFFF" d="M147.54,3.561l-0.983-1.491l0.334-0.729h0.864l0.974,1.65l0.703-1.516l1.002,0.106l0.268,0.762
				l-0.918,2.109l1.264,2.25l1.283-2.222l-0.936-2.169l0.15-0.813l0.931,0.14l0.748,1.22l0.919-1.519h0.922l0.289,0.704
				l-0.828,1.408c0,0,1.623,0.157,1.677,0.24c0.057,0.085,0.352,0.706,0.352,0.706l-0.352,0.705l-2.438,0.08l-1.434,2.248
				l2.788,0.105l1.165-2.111l0.92,0.026l0.379,0.625l-0.784,1.46h1.923l0.324,0.771l-0.354,0.721h-1.731l0.622,1.298l-0.299,0.922
				h-0.867l-1.271-2.22l-2.67,0.026l1.079,2.409l2.594,0.11l0.432,0.644l-0.406,0.733l-1.492,0.109l0.672,1.544l-0.372,0.756h-0.646
				l-0.896-1.597l-0.964,1.379l-0.903,0.059l-0.297-0.625l1.2-2.168l-1.429-2.488c0,0-1.313,2.219-1.289,2.298
				c0.025,0.084,1.082,2.09,1.082,2.09l-0.352,0.943l-0.869-0.108l-0.727-1.298l-1.084,1.406l-0.721,0.109l-0.363-0.813l0.785-1.566
				l-1.704-0.217l-0.163-0.328l0.136-0.922l2.573-0.05l1.406-2.409l-2.67,0.024l-1.227,2.029h-0.923l-0.433-0.729l0.785-1.219
				l-1.956-0.133l-0.29-0.546l0.29-0.812l2.011-0.158l-0.813-1.357l0.353-0.704l0.839,0.079l1.167,1.952l2.893,0.054l-1.352-2.434
				l-2.57-0.107l-0.344-0.544l0.261-0.813L147.54,3.561z"/>
		</g>
	</g>
	<path fill="#FFFFFF" d="M135.441,0.351c-0.031,0.072-8.758,8.914-8.758,8.914l3.402-0.201l-3.793,7.287l8.25-9.309l-3.676,0.348
		L135.441,0.351z"/>
	<g>
		<g>
			<path fill-rule="evenodd" clip-rule="evenodd" fill="#FFFFFF" d="M115.301,6.108c-0.822,1.641-2.396,2.139-4.168,2.203
				c-0.908,0.031-1.824-0.117-2.738-0.141c-0.264-0.012-0.797,0-0.797,0.191s0.322,0.59,0.56,0.684
				c1.519,0.592,3.056,0.531,4.583-0.003c0.227-0.081,0.459-0.153,0.688-0.231c0.018,0,0.047,0.027,0.07,0.039
				c-0.357,1.069-1.434,1.856-2.688,1.898c-0.723,0.021-1.451-0.076-2.177-0.063c-0.222,0.003-0.663,0.122-0.663,0.296
				c0,0.173,0.188,0.568,0.329,0.595c0.722,0.136,1.461,0.224,2.196,0.242c0.386,0.008,0.778-0.163,1.182-0.254
				c-0.14,0.777-2.568,1.521-2.568,1.871c0,0.354,2.162,1.428,1.371,2.913c-0.503-0.45-1.021-0.832-1.426-1.305
				c-0.349-0.414-0.566-0.937-0.846-1.406c-0.176-0.296-0.292-0.676-0.547-0.861c-0.756-0.553-0.814-1.262-0.695-2.091
				c0.039-0.297-0.117-0.625-0.195-0.937c-0.018-0.069-0.078-1.735-0.398-2.313c-0.352-0.641-0.828-1.146-0.766-1.953
				c0.023-0.281-0.148-0.662-0.361-0.846c-1.333-1.166-1.35-2.295,0.182-3.166c0.932-0.529,2.039-0.898,3.104-1.02
				c2.209-0.25,4.424-0.063,6.516,0.789c0.561,0.227,1.115,0.566,1.553,0.979c0.773,0.744,0.665,1.563-0.242,2.15
				c-2.136,1.377-4.52,1.629-6.982,1.441c-0.615-0.047-1.223-0.186-1.838-0.25c-0.188-0.023-0.582-0.158-0.582,0.076
				c0,0.232,0.156,0.467,0.316,0.566c1.168,0.744,2.488,0.912,3.813,0.736C112.504,6.753,113.902,6.392,115.301,6.108z
				 M105.623,2.937c0.711,1.857,8.398,2.215,10.137,0.092C114.311,1.413,107.451,1.173,105.623,2.937z"/>
			<path fill-rule="evenodd" clip-rule="evenodd" fill="#FFFFFF" d="M107.396,3.114c1.27-0.834,4.854-0.834,5.984-0.037
				C112.521,3.899,108.67,3.952,107.396,3.114z"/>
		</g>
	</g>
	<g>
		<g>
			<path fill-rule="evenodd" clip-rule="evenodd" fill="#FFFFFF" d="M37.114,4.483c0,0.037,0,0.076,0,0.109
				c-0.047,0.021-0.1,0.036-0.143,0.063c-0.717,0.438-1.432,0.875-2.146,1.313c-0.076,0.047-0.148,0.1-0.219,0.156
				c-0.211,0.188-0.16,0.424-0.117,0.656c0.035,0.186,0.201,0.219,0.355,0.25c0.543,0.125,1.084,0.25,1.629,0.375
				c0.1,0.02,0.195,0.059,0.297,0.088c-0.002,0.021-0.002,0.037-0.002,0.056c-0.107,0.036-0.209,0.079-0.316,0.105
				c-0.557,0.114-1.113,0.22-1.668,0.345c-0.107,0.025-0.248,0.089-0.287,0.172c-0.156,0.328-0.061,0.584,0.252,0.779
				c0.684,0.42,1.367,0.838,2.051,1.259c0.096,0.06,0.188,0.134,0.281,0.196c-0.008,0.016-0.014,0.033-0.021,0.051
				c-0.086-0.008-0.174-0.012-0.258-0.031c-0.871-0.191-1.742-0.379-2.611-0.574c-0.176-0.039-0.305,0.006-0.395,0.164
				c-0.096,0.172-0.236,0.317-0.078,0.549c0.354,0.514,0.678,1.045,1.014,1.571c0.031,0.044,0.055,0.095,0.078,0.143
				c-0.012,0.012-0.023,0.024-0.039,0.036c-0.086-0.043-0.18-0.08-0.26-0.129c-0.279-0.18-0.553-0.359-0.828-0.543
				c-0.211-0.135-0.42-0.275-0.637-0.406c-0.238-0.143-0.404,0.049-0.584,0.154c-0.15,0.084-0.105,0.219-0.076,0.351
				c0.197,0.915,0.393,1.823,0.586,2.74c0.01,0.036,0.002,0.081,0.002,0.124c-0.094-0.059-0.158-0.13-0.211-0.207
				c-0.117-0.18-0.227-0.367-0.342-0.549c-0.344-0.549-0.689-1.096-1.027-1.646c-0.107-0.172-0.248-0.25-0.451-0.219
				c-0.07,0.016-0.141,0.031-0.213,0.031c-0.131,0-0.166,0.063-0.176,0.188c-0.1,1.251-0.209,2.505-0.306,3.76
				c-0.014,0.162-0.061,0.287-0.18,0.389c-0.071,0-0.143,0-0.216,0c-0.138-0.078-0.19-0.201-0.201-0.355
				c-0.028-0.387-0.06-0.777-0.092-1.167c-0.074-0.892-0.147-1.787-0.225-2.685c-0.002-0.043-0.05-0.107-0.091-0.121
				c-0.35-0.117-0.527-0.055-0.73,0.258c-0.032,0.047-0.063,0.099-0.094,0.151c-0.404,0.646-0.804,1.29-1.209,1.936
				c-0.056,0.089-0.129,0.171-0.195,0.257c-0.017-0.011-0.033-0.018-0.049-0.031c0.032-0.166,0.061-0.332,0.095-0.5
				c0.173-0.801,0.351-1.604,0.519-2.406c0.018-0.079,0.004-0.203-0.049-0.262c-0.246-0.27-0.478-0.288-0.791-0.085
				c-0.431,0.28-0.86,0.565-1.295,0.845c-0.082,0.049-0.178,0.086-0.267,0.129c-0.008-0.016-0.019-0.029-0.03-0.045
				c0.025-0.045,0.047-0.092,0.076-0.134c0.331-0.521,0.658-1.042,1.001-1.558c0.108-0.156,0.12-0.289,0.008-0.438
				c-0.034-0.047-0.063-0.104-0.094-0.156c-0.073-0.119-0.18-0.172-0.32-0.141c-0.076,0.016-0.153,0.027-0.227,0.045
				c-0.812,0.177-1.625,0.361-2.437,0.537c-0.086,0.021-0.172,0.021-0.26,0.027c-0.005-0.016-0.01-0.031-0.013-0.049
				c0.097-0.07,0.191-0.139,0.291-0.201c0.703-0.438,1.405-0.873,2.113-1.297c0.254-0.156,0.24-0.383,0.211-0.633
				c-0.029-0.227-0.193-0.25-0.357-0.285c-0.545-0.113-1.09-0.223-1.634-0.333c-0.108-0.026-0.21-0.069-0.317-0.105
				c0-0.019,0-0.034,0-0.056c0.111-0.033,0.221-0.072,0.334-0.097c0.547-0.128,1.094-0.252,1.643-0.377
				c0.147-0.034,0.273-0.089,0.31-0.256c0.085-0.421,0.013-0.578-0.358-0.806c-0.609-0.367-1.217-0.74-1.827-1.113
				c-0.146-0.086-0.298-0.168-0.447-0.252c0-0.033,0-0.072,0-0.109c0.141,0.031,0.281,0.059,0.421,0.091
				c0.815,0.185,1.633,0.373,2.449,0.552c0.098,0.023,0.215,0.043,0.297,0.005c0.262-0.115,0.358-0.524,0.195-0.766
				c-0.332-0.483-0.664-0.967-0.996-1.451c-0.034-0.052-0.063-0.103-0.094-0.156c0.013-0.011,0.023-0.024,0.037-0.04
				c0.09,0.049,0.184,0.094,0.273,0.15c0.479,0.291,0.961,0.584,1.44,0.881c0.164,0.104,0.32,0.114,0.484-0.002
				c0.047-0.037,0.1-0.068,0.154-0.092c0.127-0.057,0.159-0.148,0.127-0.28c-0.047-0.185-0.091-0.37-0.133-0.557
				c-0.188-0.819-0.373-1.647-0.557-2.468c0.034,0,0.072,0,0.107,0c0.034,0.051,0.071,0.098,0.099,0.148
				c0.632,1.139,1.258,2.275,1.888,3.411c0.018,0.034,0.028,0.073,0.043,0.108c-2.014,0.584-2.92,2.574-2.544,4.246
				c0.306,1.361,1.593,2.641,2.674,2.609c0.041-0.391,0.033-0.401-0.311-0.529c-1.399-0.513-2.238-1.971-1.984-3.46
				c0.294-1.738,1.998-2.901,3.71-2.53c1.743,0.374,2.836,2.104,2.391,3.816c-0.295,1.137-1.023,1.878-2.143,2.246
				c-0.061,0.02-0.154,0.057-0.166,0.104c-0.031,0.121-0.027,0.256-0.039,0.385c1.395-0.172,2.49-1.276,2.777-2.766
				c0.148-0.766,0.047-1.501-0.289-2.203c-0.469-0.982-1.244-1.604-2.289-1.916c0.055-0.1,0.096-0.185,0.143-0.27
				c0.436-0.789,0.873-1.58,1.313-2.374c0.193-0.346,0.393-0.685,0.59-1.026c0.033,0,0.072,0,0.105,0
				C33.006,0.405,33,0.456,32.989,0.511c-0.217,0.939-0.434,1.878-0.646,2.816c-0.018,0.078-0.027,0.192,0.014,0.25
				c0.176,0.246,0.523,0.299,0.781,0.141c0.465-0.281,0.93-0.564,1.395-0.85c0.088-0.057,0.182-0.102,0.271-0.15
				c0.014,0.016,0.025,0.029,0.037,0.04c-0.031,0.054-0.061,0.104-0.094,0.157c-0.307,0.447-0.615,0.896-0.924,1.35
				c-0.242,0.348-0.24,0.422,0.006,0.762c0.082,0.111,0.176,0.154,0.309,0.125c0.164-0.04,0.328-0.072,0.492-0.105
				C35.458,4.858,36.286,4.671,37.114,4.483z"/>
		</g>
	</g>
	<polygon fill="#FFFFFF" points="12.55,10.702 17.703,11.046 13.444,7.999 17.287,4.64 12.186,5.485 12.492,0.351 9.553,4.724 
		6.039,0.765 7.03,5.823 1.895,5.437 6.058,8.483 2.14,11.858 7.303,11.05 7.06,16.351 10.006,12.077 13.511,15.921 	"/>
	<polygon fill="#FFFFFF" points="91.782,3.788 89.018,7.421 91.331,10.616 90.319,11.347 87.064,6.933 82.511,12.913 84.835,12.913 
		91.476,12.913 98.511,12.913 	"/>
</g>
</svg>
